<svg xmlns="http://www.w3.org/2000/svg" width="375" viewBox="0 0 375 375" height="375" version="1.0"><defs><clipPath id="a"><path d="M 72.332031 85 L 320 85 L 320 311.21875 L 72.332031 311.21875 Z M 72.332031 85"/></clipPath></defs><path fill="#FFF" d="M 76.460938 90.203125 C 75.71875 109.316406 75.167969 247.644531 75.488281 305.292969 C 96.222656 305.113281 159.210938 299.210938 201.609375 301.960938 C 218.804688 303.074219 305.316406 307.441406 309.84375 308.53125 C 311.605469 263.011719 318.480469 165.285156 316.691406 155.84375 C 307.679688 116.375 273.058594 94.289062 261.921875 88.089844 C 250.917969 91.359375 96.386719 88.859375 76.460938 90.203125"/><g clip-path="url(#a)"><path fill="#181518" d="M 175.878906 298.535156 C 185.550781 298.535156 194.269531 298.785156 201.785156 299.269531 C 207.117188 299.613281 219.269531 300.285156 233.34375 301.054688 C 268.984375 303.011719 297.660156 304.617188 307.265625 305.507812 C 307.957031 288.824219 309.253906 265.835938 310.507812 243.5625 C 312.660156 205.414062 315.097656 162.191406 314.050781 156.386719 C 305.464844 118.910156 272.742188 97.355469 261.492188 90.941406 C 254.851562 92.09375 231.535156 92.570312 183.144531 92.570312 C 170.679688 92.570312 157.863281 92.542969 145.597656 92.511719 C 134.347656 92.484375 123.5625 92.460938 113.9375 92.460938 C 101.230469 92.460938 86.296875 92.5 79.078125 92.769531 C 78.386719 118.796875 77.902344 247.152344 78.171875 302.550781 C 84.558594 302.382812 93.890625 301.847656 104.46875 301.238281 C 125.460938 300.035156 151.582031 298.535156 175.878906 298.535156 Z M 309.84375 311.226562 C 309.636719 311.226562 309.425781 311.199219 309.21875 311.152344 C 306.003906 310.4375 262.097656 308.03125 233.046875 306.4375 C 218.960938 305.664062 206.792969 304.996094 201.433594 304.652344 C 194.035156 304.171875 185.4375 303.925781 175.878906 303.925781 C 151.738281 303.925781 125.699219 305.421875 104.78125 306.621094 C 92.011719 307.355469 81.929688 307.933594 75.511719 307.988281 C 75.503906 307.988281 75.496094 307.988281 75.488281 307.988281 C 74.78125 307.988281 74.097656 307.710938 73.59375 307.214844 C 73.082031 306.707031 72.792969 306.023438 72.789062 305.308594 C 72.472656 248.066406 73 109.800781 73.765625 90.097656 C 73.816406 88.71875 74.902344 87.605469 76.277344 87.511719 C 80.886719 87.199219 92.148438 87.070312 113.9375 87.070312 C 123.566406 87.070312 134.355469 87.09375 145.613281 87.121094 C 157.871094 87.148438 170.683594 87.179688 183.144531 87.179688 C 201.042969 87.179688 255.523438 87.179688 261.15625 85.507812 C 261.851562 85.300781 262.601562 85.382812 263.234375 85.738281 C 274.039062 91.746094 310.027344 114.523438 319.320312 155.242188 C 319.328125 155.273438 319.335938 155.308594 319.339844 155.339844 C 320.449219 161.179688 318.695312 194.179688 315.894531 243.863281 C 314.566406 267.445312 313.191406 291.824219 312.539062 308.632812 C 312.507812 309.441406 312.117188 310.191406 311.472656 310.679688 C 311 311.035156 310.425781 311.226562 309.84375 311.226562"/></g><path fill="#FFF" d="M 260.460938 88.507812 C 270.554688 100.617188 269.214844 115.328125 260.902344 143.597656 C 295.816406 138.363281 306.75 148.84375 316.691406 155.84375 C 310.316406 119.273438 273.15625 94.84375 261.765625 88.136719 C 261.332031 88.265625 260.894531 88.394531 260.460938 88.507812"/><path fill="#181518" d="M 278.214844 139.488281 C 295.730469 139.488281 305.257812 144.546875 312.445312 149.496094 C 304.816406 123.359375 281.363281 104.296875 267.605469 95.019531 C 272.363281 106.304688 270.335938 120.257812 264.640625 140.371094 C 269.476562 139.785156 274.027344 139.488281 278.214844 139.488281 Z M 316.691406 158.539062 C 316.144531 158.539062 315.601562 158.371094 315.136719 158.042969 C 314.359375 157.5 313.582031 156.933594 312.78125 156.355469 C 305.367188 150.976562 296.96875 144.878906 278.214844 144.878906 C 273.117188 144.878906 267.425781 145.34375 261.300781 146.265625 C 260.394531 146.402344 259.476562 146.0625 258.871094 145.371094 C 258.265625 144.675781 258.054688 143.71875 258.316406 142.835938 C 267.089844 112.988281 267.113281 100.695312 258.386719 90.234375 C 257.796875 89.523438 257.609375 88.5625 257.890625 87.6875 C 258.175781 86.808594 258.886719 86.132812 259.777344 85.902344 C 260.167969 85.800781 260.554688 85.683594 260.945312 85.570312 C 261.660156 85.359375 262.492188 85.433594 263.136719 85.816406 C 274.628906 92.582031 312.570312 117.53125 319.292969 155.066406 C 319.363281 155.3125 319.40625 155.574219 319.40625 155.84375 C 319.40625 157.332031 318.199219 158.539062 316.707031 158.539062 C 316.703125 158.539062 316.695312 158.539062 316.691406 158.539062"/><path fill="#FFF" d="M 214.976562 102.585938 C 215.917969 101.808594 211.429688 100.195312 210.496094 99.605469 C 208.746094 98.507812 206.988281 97.914062 205.246094 97.179688 L 204.792969 96.953125 C 204.75 104.511719 188.75 137.007812 191.269531 137.582031 C 193.117188 138.398438 212.539062 104.597656 214.976562 102.585938"/><path fill="#181518" d="M 206.902344 100.777344 C 205.761719 105.398438 203.019531 112.355469 199.320312 121.511719 C 199.230469 121.742188 199.132812 121.980469 199.039062 122.21875 C 200.550781 119.824219 202.046875 117.425781 203.355469 115.332031 C 207.265625 109.0625 209.691406 105.210938 211.257812 102.964844 C 211.050781 102.871094 210.863281 102.785156 210.710938 102.714844 C 209.910156 102.347656 209.4375 102.128906 209.054688 101.886719 C 208.359375 101.449219 207.644531 101.101562 206.902344 100.777344 Z M 191.351562 140.292969 C 191.132812 140.265625 190.898438 140.261719 190.671875 140.207031 L 190.671875 140.210938 C 189.824219 140.015625 189.101562 139.457031 188.691406 138.675781 C 187.597656 136.589844 188.703125 133.40625 194.320312 119.496094 C 197.59375 111.386719 202.078125 100.289062 202.09375 96.941406 C 202.097656 96.011719 202.582031 95.148438 203.371094 94.660156 C 204.164062 94.171875 205.148438 94.125 205.980469 94.535156 L 206.367188 94.726562 C 206.730469 94.878906 207.089844 95.023438 207.457031 95.167969 C 208.894531 95.75 210.378906 96.347656 211.929688 97.328125 C 212.070312 97.40625 212.582031 97.640625 212.957031 97.816406 C 215.398438 98.929688 217.503906 99.894531 217.777344 101.957031 C 217.90625 102.960938 217.523438 103.949219 216.746094 104.621094 C 215.738281 105.671875 211.414062 112.605469 207.929688 118.183594 C 194.664062 139.445312 193.605469 140.292969 191.351562 140.292969"/><path fill="#FFF" d="M 233.199219 64.375 C 227.070312 63.109375 222.0625 60.851562 216.695312 58.292969 L 213.421875 56.394531 C 211.210938 59.488281 208.027344 75.570312 206.300781 78.613281 C 204.398438 81.976562 202.191406 82.203125 198.617188 83.128906 C 196.066406 83.792969 194.03125 85.203125 192.96875 87.890625 C 190.140625 95.019531 198.941406 101.710938 203.808594 104.574219 C 210.332031 108.410156 219.738281 110.886719 226.640625 109.5625 C 230.414062 108.839844 231.941406 105.769531 231.816406 102.5625 C 231.628906 97.484375 230.148438 96.28125 229.304688 92.898438 C 227.695312 86.449219 242.234375 72.6875 243.230469 70.453125 C 244.941406 66.617188 236.269531 65.015625 233.199219 64.375"/><path fill="#181518" d="M 214.636719 60.214844 C 213.742188 62.769531 212.671875 66.773438 211.886719 69.714844 C 210.464844 75.023438 209.546875 78.359375 208.648438 79.941406 C 206.367188 83.972656 203.425781 84.707031 200.3125 85.484375 C 199.988281 85.566406 199.648438 85.648438 199.296875 85.738281 C 197.3125 86.253906 196.132812 87.222656 195.476562 88.886719 C 193.078125 94.925781 203.929688 101.519531 205.175781 102.253906 C 210.316406 105.277344 217.148438 107.226562 222.582031 107.226562 C 223.859375 107.226562 225.054688 107.121094 226.132812 106.914062 C 228.71875 106.421875 229.1875 104.328125 229.125 102.664062 C 229.015625 99.820312 228.464844 98.464844 227.832031 96.902344 C 227.453125 95.96875 227.023438 94.910156 226.683594 93.550781 C 225.28125 87.921875 231.277344 80.410156 238.085938 72.558594 C 239.058594 71.4375 240.140625 70.195312 240.609375 69.558594 C 240.003906 69.03125 238.207031 68.15625 233.054688 67.101562 L 232.648438 67.015625 C 226.230469 65.6875 221.101562 63.378906 215.53125 60.726562 C 215.464844 60.691406 215.402344 60.660156 215.34375 60.621094 Z M 222.582031 112.617188 C 216.160156 112.617188 208.441406 110.425781 202.441406 106.898438 C 198.652344 104.671875 186.59375 96.648438 190.460938 86.898438 C 191.761719 83.617188 194.277344 81.472656 197.941406 80.523438 C 198.308594 80.425781 198.664062 80.335938 199.007812 80.253906 C 201.777344 79.5625 202.8125 79.300781 203.957031 77.285156 C 204.558594 76.21875 205.730469 71.839844 206.675781 68.320312 C 208.570312 61.234375 209.824219 56.792969 211.226562 54.828125 C 212.035156 53.695312 213.570312 53.363281 214.773438 54.0625 L 217.953125 55.90625 C 223.164062 58.386719 227.953125 60.539062 233.742188 61.738281 L 234.136719 61.820312 C 238.816406 62.777344 243.949219 64.074219 245.617188 67.320312 C 246.296875 68.640625 246.324219 70.140625 245.695312 71.550781 C 245.285156 72.472656 244.371094 73.542969 242.164062 76.089844 C 239.132812 79.585938 231.078125 88.871094 231.921875 92.25 C 232.167969 93.238281 232.492188 94.035156 232.832031 94.875 C 233.554688 96.65625 234.371094 98.671875 234.511719 102.460938 C 234.703125 107.488281 231.816406 111.3125 227.148438 112.210938 C 225.734375 112.480469 224.199219 112.617188 222.582031 112.617188"/><path fill="#FFF" d="M 244.71875 68.410156 C 242.9375 66.128906 239.632812 68.089844 233.304688 64.253906 C 229.1875 61.757812 217.855469 53.28125 212.015625 55.640625 C 210.179688 56.378906 208.464844 61.335938 208.230469 63.832031 C 207.566406 70.855469 219.394531 76.210938 224.796875 77.816406 C 229.132812 79.105469 235.527344 80.417969 238.492188 79.398438 C 243.414062 77.699219 246.855469 71.140625 244.71875 68.410156"/><path fill="#181518" d="M 213.152344 58.09375 C 212.402344 58.808594 211.109375 62.035156 210.917969 64.085938 C 210.507812 68.394531 219.164062 73.328125 225.566406 75.230469 C 229.433594 76.382812 233.230469 77.066406 235.710938 77.066406 C 236.816406 77.066406 237.375 76.929688 237.613281 76.851562 C 239.945312 76.046875 241.847656 73.597656 242.453125 71.699219 C 242.785156 70.664062 242.644531 70.140625 242.589844 70.066406 C 242.453125 69.890625 241.664062 69.777344 240.828125 69.65625 C 238.839844 69.371094 235.832031 68.941406 231.90625 66.558594 C 231.269531 66.171875 230.464844 65.648438 229.542969 65.046875 C 225.726562 62.558594 218.625 57.925781 214.332031 57.925781 C 213.875 57.925781 213.480469 57.980469 213.152344 58.09375 Z M 235.710938 82.460938 C 231.425781 82.457031 226.113281 81.015625 224.03125 80.398438 C 223.230469 80.160156 204.519531 74.472656 205.546875 63.578125 C 205.757812 61.292969 207.457031 54.574219 211.007812 53.140625 C 212 52.738281 213.121094 52.535156 214.332031 52.535156 C 220.230469 52.535156 227.609375 57.347656 232.488281 60.53125 C 233.359375 61.097656 234.109375 61.585938 234.703125 61.949219 C 237.691406 63.761719 239.855469 64.070312 241.597656 64.320312 C 243.363281 64.574219 245.367188 64.863281 246.84375 66.75 C 248.109375 68.367188 248.398438 70.628906 247.664062 73.113281 C 246.503906 77.03125 243.09375 80.664062 239.371094 81.945312 C 238.371094 82.289062 237.175781 82.460938 235.710938 82.460938"/><path fill="#FFF" d="M 244.292969 67.1875 C 242.511719 64.910156 241.914062 63.421875 235.585938 59.585938 C 230.171875 56.304688 211.496094 48.726562 210.511719 59.160156 C 209.851562 66.183594 222.066406 70.558594 227.34375 72.546875 C 230.96875 73.914062 237.863281 74.820312 241.820312 74.367188 C 245.117188 73.988281 246.429688 69.921875 244.292969 67.1875"/><path fill="#181518" d="M 217.546875 56.542969 C 213.46875 56.542969 213.296875 58.339844 213.195312 59.417969 C 212.746094 64.1875 223.695312 68.300781 227.820312 69.847656 L 228.292969 70.027344 C 230.917969 71.015625 235.832031 71.789062 239.476562 71.789062 L 239.480469 71.789062 C 240.25 71.789062 240.933594 71.757812 241.511719 71.691406 C 241.96875 71.636719 242.300781 71.378906 242.488281 70.921875 C 242.710938 70.402344 242.742188 69.582031 242.167969 68.851562 C 241.921875 68.539062 241.699219 68.242188 241.484375 67.949219 C 240.230469 66.277344 239.242188 64.957031 234.183594 61.894531 C 231.109375 60.027344 223.070312 56.542969 217.546875 56.542969 Z M 239.480469 77.179688 L 239.476562 77.179688 C 235.140625 77.179688 229.636719 76.292969 226.390625 75.070312 L 225.921875 74.894531 C 219.777344 72.585938 206.988281 67.785156 207.824219 58.910156 C 208.289062 53.980469 211.835938 51.152344 217.546875 51.152344 C 224.589844 51.152344 233.683594 55.28125 236.980469 57.285156 C 242.9375 60.890625 244.332031 62.753906 245.804688 64.722656 C 246 64.984375 246.199219 65.25 246.417969 65.53125 C 248.097656 67.679688 248.5 70.542969 247.46875 73.003906 C 246.519531 75.261719 244.523438 76.769531 242.125 77.046875 C 241.339844 77.136719 240.453125 77.179688 239.480469 77.179688"/></svg>